<svg width="49" height="64" viewBox="0 0 49 64" fill="none" xmlns="http://www.w3.org/2000/svg">
<path d="M6.125 64C4.44062 64 2.99921 63.4037 1.80075 62.211C0.602291 61.0184 0.00204167 59.583 0 57.9048V27.4286C0 25.7524 0.600249 24.318 1.80075 23.1253C3.00125 21.9327 4.44267 21.3354 6.125 21.3333H9.1875V15.2381C9.1875 11.0222 10.681 7.42908 13.6679 4.45867C16.6549 1.48826 20.2656 0.00203383 24.5 2.08029e-06C28.7344 -0.00202967 32.3461 1.48419 35.3351 4.45867C38.3241 7.43314 39.8166 11.0263 39.8125 15.2381V21.3333H42.875C44.5594 21.3333 46.0018 21.9307 47.2023 23.1253C48.4028 24.32 49.002 25.7544 49 27.4286V57.9048C49 59.5809 48.4008 61.0164 47.2023 62.211C46.0038 63.4057 44.5614 64.002 42.875 64H6.125ZM24.5 48.7619C26.1844 48.7619 27.6268 48.1656 28.8273 46.973C30.0278 45.7803 30.627 44.3449 30.625 42.6667C30.623 40.9884 30.0237 39.554 28.8273 38.3634C27.6309 37.1728 26.1885 36.5755 24.5 36.5714C22.8115 36.5674 21.3701 37.1647 20.1757 38.3634C18.9814 39.5622 18.3811 40.9966 18.375 42.6667C18.3689 44.3368 18.9691 45.7722 20.1757 46.973C21.3824 48.1737 22.8238 48.77 24.5 48.7619ZM15.3125 21.3333H33.6875V15.2381C33.6875 12.6984 32.7943 10.5397 31.0078 8.76191C29.2213 6.98413 27.0521 6.09524 24.5 6.09524C21.9479 6.09524 19.7786 6.98413 17.9922 8.76191C16.2057 10.5397 15.3125 12.6984 15.3125 15.2381V21.3333Z" fill="#1E1E1E"/>
</svg>
