<svg width="66" height="53" viewBox="0 0 66 53" fill="none" xmlns="http://www.w3.org/2000/svg">
<path fill-rule="evenodd" clip-rule="evenodd" d="M26.5827 0.833008H39.416C51.5146 0.833008 57.5656 0.833007 61.3225 4.59317C65.0795 8.35334 65.0827 14.4011 65.0827 26.4997C65.0827 38.5983 65.0827 44.6492 61.3225 48.4062C57.5623 52.1631 51.5146 52.1663 39.416 52.1663H26.5827C14.4841 52.1663 8.43314 52.1663 4.67618 48.4062C0.919224 44.646 0.916016 38.5983 0.916016 26.4997C0.916016 14.4011 0.916015 8.35013 4.67618 4.59317C8.43635 0.836216 14.4841 0.833008 26.5827 0.833008ZM37.0098 16.8747C37.0098 16.2365 37.2633 15.6245 37.7145 15.1732C38.1658 14.7219 38.7778 14.4684 39.416 14.4684H55.4577C56.0959 14.4684 56.7079 14.7219 57.1592 15.1732C57.6104 15.6245 57.8639 16.2365 57.8639 16.8747C57.8639 17.5129 57.6104 18.1249 57.1592 18.5761C56.7079 19.0274 56.0959 19.2809 55.4577 19.2809H39.416C38.7778 19.2809 38.1658 19.0274 37.7145 18.5761C37.2633 18.1249 37.0098 17.5129 37.0098 16.8747ZM40.2181 26.4997C40.2181 25.8615 40.4716 25.2495 40.9229 24.7982C41.3741 24.3469 41.9862 24.0934 42.6243 24.0934H55.4577C56.0959 24.0934 56.7079 24.3469 57.1592 24.7982C57.6104 25.2495 57.8639 25.8615 57.8639 26.4997C57.8639 27.1379 57.6104 27.7499 57.1592 28.2012C56.7079 28.6524 56.0959 28.9059 55.4577 28.9059H42.6243C41.9862 28.9059 41.3741 28.6524 40.9229 28.2012C40.4716 27.7499 40.2181 27.1379 40.2181 26.4997ZM43.4264 36.1247C43.4264 35.4865 43.6799 34.8745 44.1312 34.4232C44.5825 33.9719 45.1945 33.7184 45.8327 33.7184H55.4577C56.0959 33.7184 56.7079 33.9719 57.1592 34.4232C57.6104 34.8745 57.8639 35.4865 57.8639 36.1247C57.8639 36.7629 57.6104 37.3749 57.1592 37.8261C56.7079 38.2774 56.0959 38.5309 55.4577 38.5309H45.8327C45.1945 38.5309 44.5825 38.2774 44.1312 37.8261C43.6799 37.3749 43.4264 36.7629 43.4264 36.1247ZM29.791 16.8747C29.791 18.5765 29.115 20.2086 27.9116 21.4119C26.7083 22.6153 25.0762 23.2913 23.3743 23.2913C21.6725 23.2913 20.0404 22.6153 18.8371 21.4119C17.6337 20.2086 16.9577 18.5765 16.9577 16.8747C16.9577 15.1729 17.6337 13.5408 18.8371 12.3374C20.0404 11.134 21.6725 10.458 23.3743 10.458C25.0762 10.458 26.7083 11.134 27.9116 12.3374C29.115 13.5408 29.791 15.1729 29.791 16.8747ZM23.3743 42.5413C36.2077 42.5413 36.2077 39.6699 36.2077 36.1247C36.2077 32.5795 30.4648 29.708 23.3743 29.708C16.2839 29.708 10.541 32.5795 10.541 36.1247C10.541 39.6699 10.541 42.5413 23.3743 42.5413Z" fill="black"/>
</svg>
